<svg width="1240" height="460" viewBox="0 0 240 46" fill="none" xmlns="http://www.w3.org/2000/svg">
<path d="M103.49 10.4249C96.6624 10.4249 90.7742 15.8569 90.7742 23.9241C90.7742 31.9913 95.9521 37.3309 103.719 37.3309C111.486 37.3309 113.662 34.6957 115.312 29.3562L110.065 28.0848C109.607 29.4024 108.714 30.535 107.568 31.2978C106.423 32.0606 105.048 32.4536 103.673 32.3842C99.5034 32.3842 96.7311 29.6335 96.6853 25.3341H115.931V23.7161C115.931 16.0881 111.234 10.4018 103.467 10.4018L103.49 10.4249ZM110.134 21.1272H96.754C96.9831 19.5091 97.8079 18.0298 99.0451 16.9896C100.282 15.9494 101.863 15.3946 103.49 15.4409C106.972 15.4409 109.836 17.6368 110.134 21.1041V21.1272ZM77.3024 10.4249C75.9506 10.3556 74.5989 10.6329 73.4075 11.2802C72.2161 11.9043 71.1851 12.852 70.4749 14.0077H70.0396V11.0721H64.3118V36.7068H70.0396V21.5895C70.0396 20.8498 70.1541 20.1101 70.4061 19.4167C70.6811 18.7232 71.0706 18.0991 71.5975 17.5675C72.1245 17.0358 72.7431 16.6197 73.4075 16.3424C74.0948 16.065 74.828 15.9263 75.5611 15.9263C76.2485 15.9263 76.9358 16.0419 77.5773 16.3192C78.2189 16.5966 78.7916 16.9896 79.2728 17.4981C79.7539 18.0066 80.1205 18.6076 80.3725 19.2549C80.6245 19.9021 80.7162 20.6187 80.6933 21.3121V36.7299H86.4211V19.9483C86.4211 14.655 82.8698 10.448 77.3024 10.448V10.4249ZM181.434 0H171.009V5.13155C170.986 5.13155 175.729 5.13155 175.729 5.13155V31.5983H170.986V36.6836H186.199V31.5983H181.457V0H181.434ZM129.036 3.86022H123.606V11.049H118.863V16.1343H123.285V29.0094C123.285 34.4415 126.539 36.6836 131.487 36.6836H135.955V31.5521H131.533C129.792 31.5521 129.059 30.7662 129.059 28.9632V16.1343H136.23V11.049H129.059V3.86022H129.036ZM231.724 23.5774L239.285 11.049H232.938L228.081 19.5554H227.646L222.834 11.049H216.488L224.003 23.3693L215.801 36.6836H222.262L227.554 27.3914H228.081L233.465 36.6836H239.995L231.701 23.5774H231.724ZM206.338 26.0276C206.338 26.7673 206.224 27.507 205.972 28.2004C205.697 28.8939 205.307 29.518 204.78 30.0496C204.253 30.5813 203.658 30.9973 202.97 31.2747C202.283 31.5521 201.55 31.6908 200.817 31.6908C200.129 31.6908 199.442 31.5752 198.801 31.2978C198.159 31.0204 197.586 30.6275 197.105 30.119C196.624 29.6104 196.257 29.0094 196.005 28.3622C195.753 27.715 195.662 26.9984 195.685 26.305V11.049H189.957V27.8306C189.957 33.1239 193.508 37.3309 199.075 37.3309C200.427 37.4002 201.779 37.0997 202.97 36.4756C204.162 35.8515 205.193 34.9038 205.903 33.748H206.338V36.6836H212.066V11.049H206.338V26.0276ZM165.648 31.7601C165.511 31.7139 165.373 31.6214 165.259 31.529C165.144 31.4134 165.052 31.2978 165.007 31.136C164.961 30.9973 164.938 30.8355 164.938 30.6737V11.049H159.21V14.1695H158.775C157.904 12.9444 156.736 11.9736 155.384 11.3033C154.032 10.6561 152.543 10.3324 151.054 10.4018C144.272 10.4018 139.231 16.065 139.231 23.8548C139.231 31.6445 144.363 37.3077 151.214 37.3077C152.703 37.4002 154.192 37.0766 155.544 36.4063C156.873 35.7359 158.019 34.6957 158.843 33.4475H159.279C159.347 34.349 159.76 35.2043 160.447 35.8053C161.134 36.4063 162.005 36.7299 162.922 36.6836H167.252V31.7832H166.129C165.969 31.7832 165.831 31.7832 165.671 31.737L165.648 31.7601ZM152.245 31.7601C148.213 31.7601 145.074 28.7783 145.074 23.9241C145.074 19.0699 148.121 15.9494 152.199 15.9494C156.277 15.9494 159.325 18.8388 159.325 23.9241C159.325 29.0094 156.552 31.7601 152.245 31.7601ZM47.0596 29.7029C47.0596 34.2797 44.7685 38.3248 41.2631 40.7288C38.9032 40.1047 36.7725 38.7409 35.2145 36.8454C33.542 34.7882 32.6256 32.1762 32.6256 29.5411V17.9373C32.6256 14.9786 31.8695 12.0892 30.3803 9.54653C28.891 7.00387 26.7603 4.9004 24.1942 3.49038C21.8573 2.19593 19.2454 1.47937 16.5877 1.43314H16.0837C7.21703 1.41002 0 8.69127 0 17.6599V36.5681H2.8639V17.6599C2.8639 13.1294 5.1092 9.13046 8.54588 6.70337C10.9286 7.30437 13.0823 8.66816 14.6632 10.6098C16.3357 12.6671 17.2521 15.2791 17.2521 17.9142V21.1734V29.4948C17.2521 29.5642 17.2521 29.6567 17.2521 29.726C17.275 36.1751 21.0325 41.7227 26.4395 44.3347C28.6619 45.4211 31.1134 45.999 33.5878 45.999C36.0622 45.999 33.9086 45.999 34.0461 45.999C36.3372 45.9297 38.5825 45.3749 40.6445 44.381C40.8507 44.2885 41.034 44.196 41.2402 44.0805C41.286 44.0805 41.3318 44.0342 41.3776 44.0111C46.4639 41.2835 49.9235 35.8746 49.9235 29.6798V11.049H47.0596V29.6798V29.7029ZM33.8169 43.0634H33.3129C31.0905 43.0634 28.9827 42.5086 27.1269 41.5147C27.104 41.5147 27.0581 41.4916 27.0352 41.4685C26.8519 41.3529 26.6686 41.2373 26.4854 41.1217C26.3937 41.0755 26.325 41.0293 26.2333 40.9599C24.4692 39.8042 23.0028 38.2786 21.9489 36.4525C20.9179 34.6957 20.2993 32.731 20.1389 30.7199C20.116 30.3732 20.0931 30.0496 20.0931 29.7029V17.9373C20.0931 14.6087 18.9476 11.3726 16.8856 8.80685C15.5796 7.21191 13.9529 5.89435 12.1429 4.99286C13.2885 4.62302 14.4799 4.39187 15.6713 4.34564C15.7858 4.34564 15.9004 4.34564 16.0149 4.34564C18.3977 4.29941 20.7576 4.87728 22.8654 6.03304C24.9732 7.21191 26.7374 8.94554 27.9746 11.049C29.1889 13.1525 29.8533 15.5333 29.8533 17.9835V29.5873C29.8533 32.9159 30.9759 36.152 33.0609 38.7178C34.3439 40.3127 35.9706 41.6071 37.7806 42.5086C36.5434 42.9016 35.2374 43.1096 33.8628 43.1096L33.8169 43.0634Z" fill="white"></path>
</svg>